<?xml version="1.0" encoding="UTF-8" standalone="no"?>
<!-- This is a Stata 17.0 generated SVG file (http://www.stata.com) -->

<svg version="1.1" width="5.500in" height="4.000in" viewBox="0 0 3960 2880" xmlns="http://www.w3.org/2000/svg" xmlns:xlink="http://www.w3.org/1999/xlink">
	<desc>Stata Graph - Graph</desc>
	<rect x="0" y="0" width="3960" height="2880" style="fill:#EAF2F3;stroke:none"/>
	<rect x="0.00" y="0.00" width="3959.88" height="2880.00" style="fill:#EAF2F3"/>
	<rect x="2.88" y="2.88" width="3954.12" height="2874.24" style="fill:none;stroke:#EAF2F3;stroke-width:5.76"/>
	<rect x="390.80" y="100.86" width="3468.22" height="1852.84" style="fill:#FFFFFF"/>
	<rect x="393.68" y="103.74" width="3462.46" height="1847.08" style="fill:none;stroke:#FFFFFF;stroke-width:5.76"/>
	<line x1="390.80" y1="1953.70" x2="3859.02" y2="1953.70" style="stroke:#EAF2F3;stroke-width:8.64"/>
	<line x1="390.80" y1="1506.33" x2="3859.02" y2="1506.33" style="stroke:#EAF2F3;stroke-width:8.64"/>
	<line x1="390.80" y1="1058.96" x2="3859.02" y2="1058.96" style="stroke:#EAF2F3;stroke-width:8.64"/>
	<line x1="390.80" y1="611.59" x2="3859.02" y2="611.59" style="stroke:#EAF2F3;stroke-width:8.64"/>
	<line x1="390.80" y1="164.22" x2="3859.02" y2="164.22" style="stroke:#EAF2F3;stroke-width:8.64"/>
	<rect x="729.38" y="1825.62" width="550.44" height="128.09" style="fill:#FF7F00;fill-opacity:0.40"/>
	<rect x="733.70" y="1829.94" width="541.80" height="119.45" style="fill:none;stroke:#D7D29E;stroke-width:8.64"/>
	<rect x="1279.82" y="1441.49" width="550.44" height="512.22" style="fill:#FF7F00;fill-opacity:0.40"/>
	<rect x="1284.14" y="1445.80" width="541.80" height="503.58" style="fill:none;stroke:#D7D29E;stroke-width:8.64"/>
	<rect x="1830.26" y="801.31" width="550.56" height="1152.40" style="fill:#FF7F00;fill-opacity:0.40"/>
	<rect x="1834.58" y="805.63" width="541.92" height="1143.76" style="fill:none;stroke:#D7D29E;stroke-width:8.64"/>
	<rect x="2380.83" y="801.31" width="550.44" height="1152.40" style="fill:#FF7F00;fill-opacity:0.40"/>
	<rect x="2385.15" y="805.63" width="541.80" height="1143.76" style="fill:none;stroke:#D7D29E;stroke-width:8.64"/>
	<rect x="2931.27" y="1057.35" width="550.44" height="896.35" style="fill:#FF7F00;fill-opacity:0.40"/>
	<rect x="2935.59" y="1061.67" width="541.80" height="887.71" style="fill:none;stroke:#D7D29E;stroke-width:8.64"/>
	<path d=" M729.26 1918.68 L738.54 1917.32 L747.70 1915.83 L756.98 1914.35 L766.14 1912.86 L775.29 1911.25 L784.58 1909.65 L793.73 1908.04 L802.89 1906.30 L812.17 1904.57 L821.33 1902.72 L830.61 1900.86 L839.77 1898.88 L848.93 1896.90 L858.21 1894.80 L867.36 1892.69 L876.65 1890.46 L885.80 1888.24 L894.96 1885.89 L904.24 1883.41 L913.40 1880.94 L922.56 1878.46 L931.84 1875.86 L941.00 1873.14 L950.28 1870.42 L959.43 1867.57 L968.59 1864.60 L977.87 1861.63 L987.03 1858.54 L996.31 1855.44 L1005.47 1852.10 L1014.63 1848.76 L1023.91 1845.42 L1033.07 1841.95 L1042.35 1838.24 L1051.50 1834.65 L1060.66 1830.81 L1069.94 1826.98 L1079.10 1823.02 L1088.26 1818.93 L1097.54 1814.73 L1106.70 1810.52 L1115.98 1806.06 L1125.14 1801.61 L1134.29 1797.03 L1143.57 1792.45 L1152.73 1787.62 L1162.01 1782.80 L1171.17 1777.72 L1180.33 1772.65 L1189.61 1767.45 L1198.77 1762.13 L1207.92 1756.69 L1217.21 1751.12 L1226.36 1745.42 L1235.64 1739.73 L1244.80 1733.79 L1253.96 1727.85 L1263.24 1721.66 L1272.40 1715.48 L1281.68 1709.04 L1290.84 1702.61 L1299.99 1696.05 L1309.28 1689.36 L1318.43 1682.43 L1327.59 1675.50 L1336.87 1668.45 L1346.03 1661.27 L1355.31 1653.97 L1364.47 1646.55 L1373.63 1639.00 L1382.91 1631.32 L1392.06 1623.53 L1401.35 1615.61 L1410.50 1607.56 L1419.66 1599.52 L1428.94 1591.23 L1438.10 1582.81 L1447.26 1574.40 L1456.54 1565.73 L1465.70 1557.07 L1474.98 1548.16 L1484.13 1539.25 L1493.29 1530.22 L1502.57 1521.06 L1511.73 1511.78 L1521.01 1502.37 L1530.17 1492.84 L1539.33 1483.31 L1548.61 1473.54 L1557.77 1463.76 L1566.92 1453.86 L1576.20 1443.96 L1585.36 1433.81 L1594.64 1423.66 L1603.80 1413.39 L1612.96 1403.12 L1622.24 1392.73 L1631.40 1382.21 L1640.68 1371.56 L1649.84 1360.92 L1658.99 1350.28 L1668.27 1339.51 L1677.43 1328.62 L1686.59 1317.73 L1695.87 1306.72 L1705.03 1295.70 L1714.31 1284.57 L1723.47 1273.43 L1732.62 1262.29 L1741.91 1251.03 L1751.06 1239.77 L1760.34 1228.50 L1769.50 1217.24 L1778.66 1205.86 L1787.94 1194.60 L1797.10 1183.21 L1806.26 1171.83 L1815.54 1160.44 L1824.69 1149.05 L1833.98 1137.67 L1843.13 1126.28 L1852.29 1115.02 L1861.57 1103.64 L1870.73 1092.38 L1880.01 1080.99 L1889.17 1069.73 L1898.33 1058.59 L1907.61 1047.45 L1916.76 1036.31 L1925.92 1025.18 L1935.20 1014.16 L1944.36 1003.27 L1953.64 992.38 L1962.80 981.62 L1971.96 970.85 L1981.24 960.21 L1990.40 949.69 L1999.68 939.29 L2008.83 928.90 L2017.99 918.62 L2027.27 908.48 L2036.43 898.45 L2045.59 888.68 L2054.87 878.90 L2064.03 869.25 L2073.31 859.72 L2082.47 850.44 L2091.62 841.16 L2100.90 832.12 L2110.06 823.21 L2119.34 814.55 L2128.50 806.01 L2137.66 797.59 L2146.94 789.30 L2156.10 781.38 L2165.25 773.46 L2174.54 765.79 L2183.69 758.36 L2192.97 751.06 L2202.13 744.01 L2211.29 737.20 L2220.57 730.64 L2229.73 724.21 L2239.01 718.02 L2248.17 711.96 L2257.32 706.26 L2266.61 700.69 L2275.76 695.50 L2284.92 690.42 L2294.20 685.60 L2303.36 681.02 L2312.64 676.69 L2321.80 672.60 L2330.96 668.77 L2340.24 665.18 L2349.39 661.84 L2358.68 658.87 L2367.83 656.02 L2376.99 653.54 L2386.27 651.19 L2395.43 649.21 L2404.59 647.48 L2413.87 646.00 L2423.03 644.76 L2432.31 643.77 L2441.46 643.03 L2450.62 642.65 L2459.90 642.53 L2469.06 642.65 L2478.34 643.03 L2487.50 643.64 L2496.66 644.63 L2505.94 645.75 L2515.09 647.23 L2524.25 648.97 L2533.53 650.95 L2542.69 653.17 L2551.97 655.65 L2561.13 658.49 L2570.29 661.46 L2579.57 664.81 L2588.73 668.27 L2598.01 672.11 L2607.17 676.19 L2616.32 680.40 L2625.60 684.98 L2634.76 689.80 L2643.92 694.75 L2653.20 700.08 L2662.36 705.52 L2671.64 711.21 L2680.80 717.15 L2689.95 723.34 L2699.24 729.78 L2708.39 736.34 L2717.67 743.14 L2726.83 750.20 L2735.99 757.50 L2745.27 764.92 L2754.43 772.47 L2763.59 780.27 L2772.87 788.31 L2782.02 796.48 L2791.31 804.90 L2800.46 813.43 L2809.62 822.10 L2818.90 831.01 L2828.06 840.04 L2837.34 849.20 L2846.50 858.60 L2855.66 868.01 L2864.94 877.66 L2874.09 887.44 L2883.25 897.22 L2892.53 907.24 L2901.69 917.39 L2910.97 927.54 L2920.13 937.93 L2929.29 948.33 L2938.57 958.84 L2947.73 969.49 L2957.01 980.25 L2966.16 991.02 L2975.32 1001.91 L2984.60 1012.80 L2993.76 1023.82 L3002.92 1034.83 L3012.20 1045.97 L3021.36 1057.11 L3030.64 1068.37 L3039.80 1079.63 L3048.95 1090.89 L3058.23 1102.15 L3067.39 1113.54 L3076.67 1124.92 L3085.83 1136.31 L3094.99 1147.57 L3104.27 1158.95 L3113.43 1170.34 L3122.58 1181.73 L3131.87 1193.11 L3141.02 1204.50 L3150.30 1215.76 L3159.46 1227.14 L3168.62 1238.40 L3177.90 1249.67 L3187.06 1260.93 L3196.34 1272.07 L3205.50 1283.20 L3214.65 1294.22 L3223.94 1305.36 L3233.09 1316.25 L3242.25 1327.26 L3251.53 1338.03 L3260.69 1348.92 L3269.97 1359.56 L3279.13 1370.33 L3288.29 1380.85 L3297.57 1391.36 L3306.72 1401.76 L3316.01 1412.16 L3325.16 1422.43 L3334.32 1432.57 L3343.60 1442.72 L3352.76 1452.62 L3361.92 1462.52 L3371.20 1472.30 L3380.36 1482.08 L3389.64 1491.61 L3398.79 1501.13 L3407.95 1510.54 L3417.23 1519.82 L3426.39 1528.98 L3435.67 1538.14 L3444.83 1547.05 L3453.99 1555.96 L3463.27 1564.62 L3472.43 1573.28 L3481.58 1581.82" stroke-linejoin="round" style="fill:none;stroke:#2D6D66;stroke-width:8.64"/>
	<rect x="1352.46" y="1520.94" width="488.69" height="432.77" style="fill:#0080FF;fill-opacity:0.50"/>
	<rect x="1356.78" y="1525.25" width="480.05" height="424.13" style="fill:none;stroke:#D7D29E;stroke-width:8.64"/>
	<rect x="1841.15" y="367.05" width="488.57" height="1586.65" style="fill:#0080FF;fill-opacity:0.50"/>
	<rect x="1845.47" y="371.37" width="479.93" height="1578.01" style="fill:none;stroke:#D7D29E;stroke-width:8.64"/>
	<rect x="2329.72" y="1088.29" width="488.69" height="865.41" style="fill:#0080FF;fill-opacity:0.50"/>
	<rect x="2334.04" y="1092.61" width="480.05" height="856.77" style="fill:none;stroke:#D7D29E;stroke-width:8.64"/>
	<rect x="2818.41" y="943.99" width="488.69" height="1009.71" style="fill:#0080FF;fill-opacity:0.50"/>
	<rect x="2822.73" y="948.31" width="480.05" height="1001.07" style="fill:none;stroke:#D7D29E;stroke-width:8.64"/>
	<rect x="3307.10" y="1520.94" width="488.57" height="432.77" style="fill:#0080FF;fill-opacity:0.50"/>
	<rect x="3311.41" y="1525.25" width="479.93" height="424.13" style="fill:none;stroke:#D7D29E;stroke-width:8.64"/>
	<line x1="390.80" y1="1953.70" x2="390.80" y2="100.86" style="stroke:#000000;stroke-width:5.76"/>
	<line x1="390.80" y1="1953.70" x2="350.83" y2="1953.70" style="stroke:#000000;stroke-width:5.76"/>
	<text x="300.72" y="1953.70" style="font-family:'Helvetica';font-size:99.99px;fill:#000000" transform="rotate(-90 300.72,1953.70)" text-anchor="middle">0</text>
	<line x1="390.80" y1="1506.33" x2="350.83" y2="1506.33" style="stroke:#000000;stroke-width:5.76"/>
	<text x="300.72" y="1506.33" style="font-family:'Helvetica';font-size:99.99px;fill:#000000" transform="rotate(-90 300.72,1506.33)" text-anchor="middle">.01</text>
	<line x1="390.80" y1="1058.96" x2="350.83" y2="1058.96" style="stroke:#000000;stroke-width:5.76"/>
	<text x="300.72" y="1058.96" style="font-family:'Helvetica';font-size:99.99px;fill:#000000" transform="rotate(-90 300.72,1058.96)" text-anchor="middle">.02</text>
	<line x1="390.80" y1="611.59" x2="350.83" y2="611.59" style="stroke:#000000;stroke-width:5.76"/>
	<text x="300.72" y="611.59" style="font-family:'Helvetica';font-size:99.99px;fill:#000000" transform="rotate(-90 300.72,611.59)" text-anchor="middle">.03</text>
	<line x1="390.80" y1="164.22" x2="350.83" y2="164.22" style="stroke:#000000;stroke-width:5.76"/>
	<text x="300.72" y="164.22" style="font-family:'Helvetica';font-size:99.99px;fill:#000000" transform="rotate(-90 300.72,164.22)" text-anchor="middle">.04</text>
	<text x="190.71" y="1027.28" style="font-family:'Helvetica';font-size:99.99px;fill:#000000" transform="rotate(-90 190.71,1027.28)" text-anchor="middle">Density</text>
	<line x1="390.80" y1="1953.70" x2="3859.02" y2="1953.70" style="stroke:#000000;stroke-width:5.76"/>
	<line x1="737.30" y1="1953.70" x2="737.30" y2="1993.67" style="stroke:#000000;stroke-width:5.76"/>
	<text x="737.30" y="2083.66" style="font-family:'Helvetica';font-size:99.99px;fill:#000000" text-anchor="middle">20</text>
	<line x1="1682.63" y1="1953.70" x2="1682.63" y2="1993.67" style="stroke:#000000;stroke-width:5.76"/>
	<text x="1682.63" y="2083.66" style="font-family:'Helvetica';font-size:99.99px;fill:#000000" text-anchor="middle">40</text>
	<line x1="2627.83" y1="1953.70" x2="2627.83" y2="1993.67" style="stroke:#000000;stroke-width:5.76"/>
	<text x="2627.83" y="2083.66" style="font-family:'Helvetica';font-size:99.99px;fill:#000000" text-anchor="middle">60</text>
	<line x1="3573.16" y1="1953.70" x2="3573.16" y2="1993.67" style="stroke:#000000;stroke-width:5.76"/>
	<text x="3573.16" y="2083.66" style="font-family:'Helvetica';font-size:99.99px;fill:#000000" text-anchor="middle">80</text>
	<text x="2124.91" y="2193.67" style="font-family:'Helvetica';font-size:99.99px;fill:#000000" text-anchor="middle">age</text>
	<rect x="1243.32" y="2278.31" width="1763.19" height="466.30" style="fill:#FFFFFF"/>
	<rect x="1246.20" y="2281.19" width="1757.43" height="460.54" style="fill:none;stroke:#000000;stroke-width:5.76"/>
	<rect x="1286.51" y="2321.50" width="374.34" height="99.99" style="fill:#FF7F00;fill-opacity:0.40"/>
	<rect x="1290.82" y="2325.82" width="365.70" height="91.35" style="fill:none;stroke:#D7D29E;stroke-width:8.64"/>
	<line x1="1286.51" y1="2511.46" x2="1660.85" y2="2511.46" style="stroke:#2D6D66;stroke-width:8.64"/>
	<rect x="1286.51" y="2601.43" width="374.34" height="99.99" style="fill:#0080FF;fill-opacity:0.50"/>
	<rect x="1290.82" y="2605.75" width="365.70" height="91.35" style="fill:none;stroke:#D7D29E;stroke-width:8.64"/>
	<text x="1720.87" y="2406.52" style="font-family:'Helvetica';font-size:99.99px;fill:#000000">Sampled from Normal</text>
	<text x="1720.87" y="2546.49" style="font-family:'Helvetica';font-size:99.99px;fill:#000000">Theoretical Normal</text>
	<text x="1720.87" y="2686.46" style="font-family:'Helvetica';font-size:99.99px;fill:#000000">Sampled from t-distribution</text>
</svg>
